<svg width="90" height="40" viewBox="0 0 90 40" fill="none" xmlns="http://www.w3.org/2000/svg">
<path d="M77.1001 9.55176H80.4782L89.9305 31.4937H85.4678L83.4223 26.4731H73.908L71.9245 31.4937H67.5547L77.1001 9.55176ZM82.0587 23.126L78.6807 14.2005L75.2406 23.126H82.0587Z" fill="white"/>
<path d="M50.4821 9.55176H58.106C59.1597 9.55176 60.1721 9.65506 61.1432 9.86167C62.1349 10.0476 63.013 10.3782 63.7774 10.8534C64.5419 11.3286 65.1514 11.9691 65.6059 12.7749C66.0605 13.5806 66.2877 14.6034 66.2877 15.843C66.2877 17.4339 65.8435 18.7665 64.9551 19.8409C64.0873 20.9153 62.8374 21.5661 61.2051 21.7934L67.0315 31.4937H62.3208L57.2382 22.1963H54.387V31.4937H50.4821V9.55176ZM57.4242 18.8492C57.982 18.8492 58.5399 18.8285 59.0977 18.7872C59.6556 18.7252 60.1618 18.6012 60.6163 18.4153C61.0915 18.2087 61.4737 17.9091 61.763 17.5165C62.0522 17.1033 62.1969 16.5352 62.1969 15.812C62.1969 15.1715 62.0626 14.655 61.794 14.2625C61.5254 13.8699 61.1741 13.5806 60.7403 13.3947C60.3064 13.1881 59.8209 13.0538 59.2837 12.9918C58.7672 12.9298 58.261 12.8988 57.7651 12.8988H54.387V18.8492H57.4242Z" fill="white"/>
<path d="M23.4883 20.6151C23.4883 18.8589 23.7776 17.268 24.3561 15.8424C24.9346 14.3962 25.7301 13.1668 26.7424 12.1545C27.7755 11.1421 28.9945 10.3673 30.3994 9.8301C31.825 9.27226 33.3849 8.99334 35.0791 8.99334C36.794 8.97267 38.3642 9.23094 39.7898 9.76812C41.2154 10.2846 42.4448 11.0491 43.4778 12.0615C44.5108 13.0739 45.3166 14.2929 45.8951 15.7185C46.4736 17.1441 46.7629 18.735 46.7629 20.4911C46.7629 22.206 46.4736 23.7659 45.8951 25.1709C45.3166 26.5758 44.5108 27.7845 43.4778 28.7968C42.4448 29.8092 41.2154 30.6047 39.7898 31.1832C38.3642 31.741 36.794 32.0303 35.0791 32.0509C33.3849 32.0509 31.825 31.7824 30.3994 31.2452C28.9945 30.6873 27.7755 29.9125 26.7424 28.9208C25.7301 27.9084 24.9346 26.6998 24.3561 25.2948C23.7776 23.8899 23.4883 22.33 23.4883 20.6151ZM27.5792 20.3672C27.5792 21.5449 27.7548 22.6296 28.1061 23.6213C28.478 24.613 28.9945 25.4704 29.6556 26.1936C30.3168 26.9167 31.1019 27.4849 32.011 27.8981C32.9407 28.3113 33.9738 28.5179 35.1101 28.5179C36.2465 28.5179 37.2795 28.3113 38.2093 27.8981C39.139 27.4849 39.9344 26.9167 40.5956 26.1936C41.2567 25.4704 41.7629 24.613 42.1142 23.6213C42.4861 22.6296 42.672 21.5449 42.672 20.3672C42.672 19.2722 42.4861 18.2494 42.1142 17.299C41.7629 16.3486 41.2567 15.5222 40.5956 14.8197C39.9344 14.0966 39.139 13.5387 38.2093 13.1462C37.2795 12.733 36.2465 12.5264 35.1101 12.5264C33.9738 12.5264 32.9407 12.733 32.011 13.1462C31.1019 13.5387 30.3168 14.0966 29.6556 14.8197C28.9945 15.5222 28.478 16.3486 28.1061 17.299C27.7548 18.2494 27.5792 19.2722 27.5792 20.3672Z" fill="white"/>
<path d="M0 9.55176H5.17557L15.8056 25.8532H15.8676V9.55176H19.7725V31.4937H14.8139L3.9669 14.6653H3.90492V31.4937H0V9.55176Z" fill="white"/>
</svg>
