<svg width="24" height="24" viewBox="0 0 24 24" fill="none" xmlns="http://www.w3.org/2000/svg">
<path d="M11.5 20.2998H5.99998C5.29998 20.2998 4.79998 19.6998 4.79998 19.0998V11.8998H20C20.4 11.8998 20.8 11.5998 20.8 11.0998V7.0998C20.8 5.5998 19.6 4.2998 18 4.2998H16.8V3.0998C16.8 2.6998 16.5 2.2998 16 2.2998C15.5 2.2998 15.2 2.5998 15.2 3.0998V4.2998H8.69998V3.0998C8.69998 2.6998 8.39998 2.2998 7.89998 2.2998C7.39998 2.2998 7.09998 2.5998 7.09998 3.0998V4.2998H5.89998C4.39998 4.2998 3.09998 5.4998 3.09998 7.0998V19.0998C3.09998 20.5998 4.29998 21.8998 5.89998 21.8998H11.4C11.8 21.8998 12.2 21.5998 12.2 21.0998C12.2 20.5998 11.9 20.2998 11.4 20.2998H11.5ZM5.99998 5.7998H7.19998V6.9998C7.19998 7.3998 7.49998 7.7998 7.99998 7.7998C8.49998 7.7998 8.79998 7.4998 8.79998 6.9998V5.7998H15.3V6.9998C15.3 7.3998 15.6 7.7998 16.1 7.7998C16.6 7.7998 16.9 7.4998 16.9 6.9998V5.7998H18.1C18.8 5.7998 19.3 6.3998 19.3 6.9998V10.1998H4.79998V6.9998C4.79998 6.2998 5.39998 5.7998 5.99998 5.7998ZM21.8 14.0998C20.7 12.9998 18.9 12.9998 17.8 14.0998L14.4 17.4998C14.3 17.5998 14.2 17.7998 14.2 17.9998V20.9998C14.2 21.3998 14.5 21.7998 15 21.7998H18C18.2 21.7998 18.4 21.7998 18.5 21.5998L21.9 18.1998C23 17.0998 23 15.2998 21.9 14.1998L21.8 14.0998ZM20.8 17.0998L17.6 20.2998H15.7V18.3998L18.9 15.1998C19.4 14.6998 20.3 14.6998 20.8 15.1998C21.3 15.6998 21.3 16.5998 20.8 17.0998Z" fill="black"/>
</svg>
