<svg width="24" height="24" viewBox="0 0 24 24" fill="none" xmlns="http://www.w3.org/2000/svg">
<path d="M6 5.75C5.66848 5.75 5.35054 5.8817 5.11612 6.11612C4.8817 6.35054 4.75 6.66848 4.75 7V11C4.75 11.1989 4.67098 11.3897 4.53033 11.5303L4.06066 12L4.53033 12.4697C4.67098 12.6103 4.75 12.8011 4.75 13V17C4.75 17.3315 4.8817 17.6495 5.11612 17.8839C5.35054 18.1183 5.66848 18.25 6 18.25C6.41421 18.25 6.75 18.5858 6.75 19C6.75 19.4142 6.41421 19.75 6 19.75C5.27065 19.75 4.57118 19.4603 4.05546 18.9445C3.53973 18.4288 3.25 17.7293 3.25 17V13.3107L2.46967 12.5303C2.17678 12.2374 2.17678 11.7626 2.46967 11.4697L3.25 10.6893V7C3.25 6.27065 3.53973 5.57118 4.05546 5.05546C4.57118 4.53973 5.27065 4.25 6 4.25C6.41421 4.25 6.75 4.58579 6.75 5C6.75 5.41421 6.41421 5.75 6 5.75Z" fill="black"/>
<path d="M9 11.25C8.58579 11.25 8.25 11.5858 8.25 12C8.25 12.4142 8.58579 12.75 9 12.75H9.01C9.42421 12.75 9.76 12.4142 9.76 12C9.76 11.5858 9.42421 11.25 9.01 11.25H9Z" fill="black"/>
<path d="M11.25 12C11.25 11.5858 11.5858 11.25 12 11.25H12.01C12.4242 11.25 12.76 11.5858 12.76 12C12.76 12.4142 12.4242 12.75 12.01 12.75H12C11.5858 12.75 11.25 12.4142 11.25 12Z" fill="black"/>
<path d="M14.25 12C14.25 11.5858 14.5858 11.25 15 11.25H15.01C15.4242 11.25 15.76 11.5858 15.76 12C15.76 12.4142 15.4242 12.75 15.01 12.75H15C14.5858 12.75 14.25 12.4142 14.25 12Z" fill="black"/>
<path d="M18 4.25C17.5858 4.25 17.25 4.58579 17.25 5C17.25 5.41421 17.5858 5.75 18 5.75C18.3315 5.75 18.6495 5.8817 18.8839 6.11612C19.1183 6.35054 19.25 6.66848 19.25 7V11C19.25 11.1989 19.329 11.3897 19.4697 11.5303L19.9393 12L19.4697 12.4697C19.329 12.6103 19.25 12.8011 19.25 13V17C19.25 17.3315 19.1183 17.6495 18.8839 17.8839C18.6495 18.1183 18.3315 18.25 18 18.25C17.5858 18.25 17.25 18.5858 17.25 19C17.25 19.4142 17.5858 19.75 18 19.75C18.7293 19.75 19.4288 19.4603 19.9445 18.9445C20.4603 18.4288 20.75 17.7293 20.75 17V13.3107L21.5303 12.5303C21.8232 12.2374 21.8232 11.7626 21.5303 11.4697L20.75 10.6893V7C20.75 6.27065 20.4603 5.57118 19.9445 5.05546C19.4288 4.53973 18.7293 4.25 18 4.25Z" fill="black"/>
</svg>
