<svg width="24" height="24" viewBox="0 0 24 24" fill="none" xmlns="http://www.w3.org/2000/svg">
<path d="M17.8 17.0004V19.0004C17.8 20.5004 16.6 21.8004 15 21.8004H5.00001C3.50001 21.8004 2.20001 20.6004 2.20001 19.0004V9.00039C2.20001 7.50039 3.40001 6.20039 5.00001 6.20039H7.00001C7.40001 6.20039 7.80001 6.50039 7.80001 7.00039C7.80001 7.50039 7.50001 7.80039 7.00001 7.80039H5.00001C4.30001 7.80039 3.80001 8.40039 3.80001 9.00039V19.0004C3.80001 19.7004 4.40001 20.2004 5.00001 20.2004H15C15.7 20.2004 16.2 19.6004 16.2 19.0004V17.0004C16.2 16.6004 16.5 16.2004 17 16.2004C17.5 16.2004 17.8 16.5004 17.8 17.0004ZM20.9 7.10039L12.5 15.5004C12.4 15.6004 12.2 15.7004 12 15.7004H9.00001C8.60001 15.7004 8.20001 15.4004 8.20001 14.9004V11.9004C8.20001 11.7004 8.20001 11.5004 8.40001 11.4004L16.9 3.10039C18 2.00039 19.8 2.00039 20.9 3.10039C22 4.20039 22 6.00039 20.9 7.10039ZM16 6.10039L9.70001 12.3004V14.2004H11.6L17.8 7.90039L16 6.10039ZM19.9 4.10039C19.4 3.60039 18.5 3.60039 18 4.10039L17.1 5.00039L19 6.90039L19.9 6.00039C20.4 5.50039 20.4 4.60039 19.9 4.10039Z" fill="black"/>
</svg>
