<svg width="24" height="24" viewBox="0 0 24 24" fill="none" xmlns="http://www.w3.org/2000/svg">
<path d="M6 4.75C5.66848 4.75 5.35054 4.8817 5.11612 5.11612C4.8817 5.35054 4.75 5.66848 4.75 6V8C4.75 8.41421 4.41421 8.75 4 8.75C3.58579 8.75 3.25 8.41421 3.25 8V6C3.25 5.27065 3.53973 4.57118 4.05546 4.05546C4.57118 3.53973 5.27065 3.25 6 3.25H18C18.7293 3.25 19.4288 3.53973 19.9445 4.05546C20.4603 4.57118 20.75 5.27065 20.75 6V18C20.75 18.7293 20.4603 19.4288 19.9445 19.9445C19.4288 20.4603 18.7293 20.75 18 20.75H16C15.5858 20.75 15.25 20.4142 15.25 20C15.25 19.5858 15.5858 19.25 16 19.25H18C18.3315 19.25 18.6495 19.1183 18.8839 18.8839C19.1183 18.6495 19.25 18.3315 19.25 18V6C19.25 5.66848 19.1183 5.35054 18.8839 5.11612C18.6495 4.8817 18.3315 4.75 18 4.75H6Z" fill="black"/>
<path fill-rule="evenodd" clip-rule="evenodd" d="M13.75 13C13.75 12.2707 13.4603 11.5712 12.9445 11.0555C12.4288 10.5397 11.7293 10.25 11 10.25H6C5.27065 10.25 4.57118 10.5397 4.05546 11.0555C3.53973 11.5712 3.25 12.2707 3.25 13V18C3.25 18.7293 3.53973 19.4288 4.05546 19.9445C4.57118 20.4603 5.27065 20.75 6 20.75H11C11.7293 20.75 12.4288 20.4603 12.9445 19.9445C13.4603 19.4288 13.75 18.7293 13.75 18V13ZM5.11612 12.1161C5.35054 11.8817 5.66848 11.75 6 11.75H11C11.3315 11.75 11.6495 11.8817 11.8839 12.1161C12.1183 12.3505 12.25 12.6685 12.25 13V14.291C11.295 14.395 10.2184 14.7112 9.3 15.4C8.23587 16.1981 7.45328 17.4458 7.28415 19.25H6C5.66848 19.25 5.35054 19.1183 5.11612 18.8839C4.8817 18.6495 4.75 18.3315 4.75 18V13C4.75 12.6685 4.8817 12.3505 5.11612 12.1161ZM8.79216 19.25C8.94897 17.9194 9.52436 17.1067 10.2 16.6C10.8081 16.1439 11.5466 15.9001 12.25 15.8021V18C12.25 18.3315 12.1183 18.6495 11.8839 18.8839C11.6495 19.1183 11.3315 19.25 11 19.25H8.79216Z" fill="black"/>
<path d="M12 7.25C11.5858 7.25 11.25 7.58579 11.25 8C11.25 8.41421 11.5858 8.75 12 8.75H15.25V12C15.25 12.4142 15.5858 12.75 16 12.75C16.4142 12.75 16.75 12.4142 16.75 12V8C16.75 7.58579 16.4142 7.25 16 7.25H12Z" fill="black"/>
</svg>
