<svg width="24" height="24" viewBox="0 0 24 24" fill="none" xmlns="http://www.w3.org/2000/svg">
<path d="M18.75 4H4.75C3.23 4 2 5.23 2 6.75V16.75C2 18.27 3.23 19.5 4.75 19.5H18.75C20.27 19.5 21.5 18.27 21.5 16.75V6.75C21.5 5.23 20.27 4 18.75 4ZM4.75 5.5H18.75C19.31 5.5 19.77 5.88 19.93 6.4L11.75 11.85L3.57 6.4C3.73 5.89 4.18 5.5 4.75 5.5ZM18.75 18H4.75C4.06 18 3.5 17.44 3.5 16.75V8.15L11.33 13.37C11.46 13.45 11.6 13.5 11.75 13.5C11.9 13.5 12.04 13.46 12.17 13.37L20 8.15V16.75C20 17.44 19.44 18 18.75 18Z" fill="black"/>
</svg>
