<svg width="24" height="24" viewBox="0 0 24 24" fill="none" xmlns="http://www.w3.org/2000/svg">
<path d="M3.00001 20.7498C2.79001 20.7498 2.58001 20.6598 2.44001 20.4998C2.26001 20.2998 2.20001 20.0198 2.29001 19.7598L3.48001 16.1998C1.19001 12.4798 2.23001 7.76985 5.97001 5.10985C9.75001 2.42985 15.24 2.64985 18.74 5.62985C20.49 7.11985 21.55 9.12985 21.74 11.2898C21.78 11.6998 21.47 12.0698 21.06 12.0998C20.66 12.1398 20.28 11.8298 20.25 11.4198C20.09 9.65985 19.21 8.00985 17.77 6.76985C14.78 4.21985 10.08 4.02985 6.85001 6.32985C3.68001 8.57985 2.86001 12.5998 4.94001 15.6698C5.07001 15.8598 5.10001 16.1098 5.03001 16.3298L4.14001 18.9898L7.56001 18.2598C7.72001 18.2298 7.89001 18.2498 8.04001 18.3198C10.11 19.3298 12.58 19.4998 14.81 18.7998C15.2 18.6798 15.62 18.8998 15.75 19.2898C15.87 19.6798 15.65 20.1098 15.26 20.2298C12.75 21.0198 9.99001 20.8498 7.63001 19.7798L3.18001 20.7298C3.13001 20.7398 3.08001 20.7498 3.02001 20.7498H3.00001Z" fill="black"/>
<path d="M19 22.7598C18.59 22.7598 18.25 22.4198 18.25 22.0098C18.25 21.5998 18.59 21.2598 19 21.2598C19.41 21.2598 19.75 21.5898 19.75 22.0098C19.75 22.4298 19.41 22.7698 19 22.7698V22.7598Z" fill="black"/>
<path d="M18.25 19C18.25 19.42 18.59 19.75 19 19.75V19.74C20.51 19.74 21.74 18.5 21.74 16.98C21.74 15.95 21.17 15.01 20.25 14.54C19.11 13.96 17.74 14.24 16.92 15.21C16.65 15.53 16.69 16 17.01 16.27C17.33 16.53 17.8 16.5 18.07 16.18C18.44 15.74 19.06 15.62 19.57 15.88C19.99 16.1 20.25 16.52 20.25 16.99C20.25 17.68 19.69 18.25 19 18.25C18.58 18.25 18.25 18.59 18.25 19Z" fill="black"/>
</svg>
