<svg width="24" height="24" viewBox="0 0 24 24" fill="none" xmlns="http://www.w3.org/2000/svg">
<path d="M11.99 19.2298H12.01V19.2198C12.42 19.2198 12.76 19.5598 12.76 19.9698C12.76 20.3898 12.39 20.7098 11.99 20.7198C10.49 20.7198 8.97997 20.3998 7.60997 19.7798L3.15998 20.7298C3.09997 20.7498 3.04997 20.7498 2.99997 20.7498C2.78997 20.7498 2.57997 20.6598 2.43997 20.4998C2.25997 20.2998 2.20997 20.0098 2.28997 19.7598L3.47997 16.1998C1.18997 12.4798 2.21997 7.76985 5.96997 5.10985C9.75997 2.42985 15.24 2.64985 18.74 5.62985C20.86 7.43985 21.96 9.97985 21.75 12.5998C21.72 13.0098 21.35 13.3098 20.94 13.2898C20.53 13.2498 20.22 12.8898 20.25 12.4798C20.42 10.3398 19.51 8.25985 17.76 6.76985C14.78 4.21985 10.08 4.02985 6.83997 6.32985C3.66997 8.57985 2.84997 12.5898 4.92997 15.6698C5.05997 15.8698 5.08997 16.1098 5.01997 16.3298L4.12997 18.9898L7.54997 18.2598C7.70997 18.2298 7.87997 18.2498 8.02997 18.3198C9.25997 18.9198 10.63 19.2298 11.99 19.2298Z" fill="black"/>
<path d="M19.75 18.25H22C22.41 18.25 22.75 18.59 22.75 19C22.75 19.41 22.41 19.75 22 19.75H19.75V22C19.75 22.41 19.41 22.75 19 22.75C18.59 22.75 18.25 22.41 18.25 22V19.75H16C15.59 19.75 15.25 19.41 15.25 19C15.25 18.59 15.59 18.25 16 18.25H18.25V16C18.25 15.59 18.59 15.25 19 15.25C19.41 15.25 19.75 15.59 19.75 16V18.25Z" fill="black"/>
</svg>
