<svg width="24" height="24" viewBox="0 0 24 24" fill="none" xmlns="http://www.w3.org/2000/svg">
<path d="M3.25 6C3.25 5.58579 3.58579 5.25 4 5.25H11C11.4142 5.25 11.75 5.58579 11.75 6C11.75 6.41421 11.4142 6.75 11 6.75H4C3.58579 6.75 3.25 6.41421 3.25 6Z" fill="black"/>
<path d="M3.25 12C3.25 11.5858 3.58579 11.25 4 11.25H11C11.4142 11.25 11.75 11.5858 11.75 12C11.75 12.4142 11.4142 12.75 11 12.75H4C3.58579 12.75 3.25 12.4142 3.25 12Z" fill="black"/>
<path d="M4 17.25C3.58579 17.25 3.25 17.5858 3.25 18C3.25 18.4142 3.58579 18.75 4 18.75H13C13.4142 18.75 13.75 18.4142 13.75 18C13.75 17.5858 13.4142 17.25 13 17.25H4Z" fill="black"/>
<path d="M18.2871 5.30691C18.3755 5.34351 18.4584 5.39776 18.5303 5.46967L21.5303 8.46967C21.8232 8.76256 21.8232 9.23744 21.5303 9.53033C21.2374 9.82322 20.7626 9.82322 20.4697 9.53033L18.75 7.81066V18C18.75 18.4142 18.4142 18.75 18 18.75C17.5858 18.75 17.25 18.4142 17.25 18V7.81066L15.5303 9.53033C15.2374 9.82322 14.7626 9.82322 14.4697 9.53033C14.1768 9.23744 14.1768 8.76256 14.4697 8.46967L17.4697 5.46967C17.5416 5.39776 17.6245 5.34351 17.7129 5.30691C17.8013 5.27024 17.8983 5.25 18 5.25C18.1017 5.25 18.1987 5.27024 18.2871 5.30691Z" fill="black"/>
</svg>
