<svg width="24" height="24" viewBox="0 0 24 24" fill="none" xmlns="http://www.w3.org/2000/svg">
<path fill-rule="evenodd" clip-rule="evenodd" d="M11.993 1.25195C12.2785 1.25195 12.5392 1.41403 12.6655 1.67003L15.577 7.56929L22.0866 8.51271C22.3692 8.55368 22.6041 8.75165 22.6923 9.02331C22.7805 9.29497 22.7068 9.59316 22.5021 9.79238L17.7849 14.3841L18.8972 20.8681C18.9455 21.1497 18.8297 21.4341 18.5985 21.6019C18.3674 21.7697 18.061 21.7916 17.8083 21.6585L11.9996 18.5975L6.177 21.6588C5.92431 21.7916 5.61811 21.7695 5.38714 21.6017C5.15618 21.4339 5.04051 21.1495 5.08878 20.8681L6.20105 14.3841L1.48385 9.79238C1.27917 9.59316 1.20543 9.29497 1.29365 9.02331C1.38187 8.75165 1.61673 8.55368 1.89941 8.51271L8.40901 7.56929L11.3204 1.67003C11.4468 1.41403 11.7075 1.25195 11.993 1.25195Z" fill="black"/>
</svg>
