<svg width="24" height="24" viewBox="0 0 24 24" fill="none" xmlns="http://www.w3.org/2000/svg">
<path fill-rule="evenodd" clip-rule="evenodd" d="M11.993 1.25195C12.2785 1.25195 12.5392 1.41403 12.6655 1.67003L15.577 7.56929L22.0866 8.51271C22.3692 8.55368 22.6041 8.75165 22.6923 9.02331C22.7805 9.29497 22.7068 9.59315 22.5021 9.79238L17.7849 14.3841L18.8972 20.8681C18.9455 21.1497 18.8297 21.4341 18.5985 21.6019C18.3674 21.7697 18.061 21.7916 17.8083 21.6585L11.9996 18.5975L6.177 21.6588C5.92431 21.7916 5.6181 21.7695 5.38714 21.6017C5.15618 21.4339 5.04051 21.1495 5.08878 20.8681L6.20105 14.3841L1.48385 9.79238C1.27917 9.59315 1.20543 9.29497 1.29365 9.02331C1.38187 8.75165 1.61673 8.55368 1.89941 8.51271L8.40901 7.56929L11.3204 1.67003C11.4468 1.41403 11.7075 1.25195 11.993 1.25195ZM11.993 3.69663L9.57953 8.58687C9.47024 8.80832 9.25895 8.96178 9.01455 8.9972L3.62054 9.77894L7.53011 13.5845C7.70714 13.7568 7.78795 14.0053 7.74618 14.2488L6.82413 19.6239L11.651 17.0861C11.8697 16.9711 12.131 16.9712 12.3496 17.0864L17.1615 19.6221L16.2398 14.2488C16.198 14.0053 16.2788 13.7568 16.4558 13.5845L20.3654 9.77894L14.9714 8.9972C14.727 8.96178 14.5157 8.80832 14.4064 8.58687L11.993 3.69663Z" fill="black"/>
</svg>
