<svg width="24" height="24" viewBox="0 0 24 24" fill="none" xmlns="http://www.w3.org/2000/svg">
<path d="M12 2.25C6.62 2.25 2.25 6.62 2.25 12C2.25 17.38 6.62 21.75 12 21.75C17.38 21.75 21.75 17.38 21.75 12C21.75 6.62 17.38 2.25 12 2.25ZM7.07 18.6C7.6 17.48 8.72 16.75 10 16.75H14C15.26 16.75 16.4 17.49 16.93 18.6C15.55 19.63 13.85 20.25 12 20.25C10.15 20.25 8.45 19.63 7.07 18.6ZM18.06 17.57C17.21 16.17 15.68 15.25 14 15.25H9.99C8.28 15.25 6.76 16.15 5.92 17.57C4.57 16.1 3.74 14.15 3.74 12C3.75 7.45 7.45 3.75 12 3.75C16.55 3.75 20.25 7.45 20.25 12C20.25 14.15 19.42 16.1 18.06 17.57ZM12 6.25C9.93 6.25 8.25 7.93 8.25 10C8.25 12.07 9.93 13.75 12 13.75C14.07 13.75 15.75 12.07 15.75 10C15.75 7.93 14.07 6.25 12 6.25ZM12 12.25C10.76 12.25 9.75 11.24 9.75 10C9.75 8.76 10.76 7.75 12 7.75C13.24 7.75 14.25 8.76 14.25 10C14.25 11.24 13.24 12.25 12 12.25Z" fill="black"/>
</svg>
