<svg width="24" height="24" viewBox="0 0 24 24" fill="none" xmlns="http://www.w3.org/2000/svg">
<path d="M5.11612 5.11612C5.35054 4.8817 5.66848 4.75 6 4.75H18C18.3315 4.75 18.6495 4.8817 18.8839 5.11612C19.1183 5.35054 19.25 5.66848 19.25 6V18C19.25 18.3315 19.1183 18.6495 18.8839 18.8839C18.6495 19.1183 18.3315 19.25 18 19.25H12C11.5858 19.25 11.25 19.5858 11.25 20C11.25 20.4142 11.5858 20.75 12 20.75H18C18.7293 20.75 19.4288 20.4603 19.9445 19.9445C20.4603 19.4288 20.75 18.7293 20.75 18V6C20.75 5.27065 20.4603 4.57118 19.9445 4.05546C19.4288 3.53973 18.7293 3.25 18 3.25H6C5.27065 3.25 4.57118 3.53973 4.05546 4.05546C3.53973 4.57118 3.25 5.27065 3.25 6V12C3.25 12.4142 3.58579 12.75 4 12.75C4.41421 12.75 4.75 12.4142 4.75 12V6C4.75 5.66848 4.8817 5.35054 5.11612 5.11612Z" fill="black"/>
<path fill-rule="evenodd" clip-rule="evenodd" d="M4 15.25C3.53587 15.25 3.09075 15.4344 2.76256 15.7626C2.43437 16.0908 2.25 16.5359 2.25 17V20C2.25 20.4641 2.43437 20.9092 2.76256 21.2374C3.09075 21.5656 3.53587 21.75 4 21.75H7C7.46413 21.75 7.90925 21.5656 8.23744 21.2374C8.56563 20.9092 8.75 20.4641 8.75 20V17C8.75 16.5359 8.56563 16.0908 8.23744 15.7626C7.90925 15.4344 7.46413 15.25 7 15.25H4ZM3.82322 16.8232C3.87011 16.7763 3.93369 16.75 4 16.75H7C7.06631 16.75 7.12989 16.7763 7.17678 16.8232C7.22366 16.8701 7.25 16.9337 7.25 17V20C7.25 20.0663 7.22366 20.1299 7.17678 20.1768C7.12989 20.2237 7.06631 20.25 7 20.25H4C3.93369 20.25 3.87011 20.2237 3.82322 20.1768C3.77634 20.1299 3.75 20.0663 3.75 20V17C3.75 16.9337 3.77634 16.8701 3.82322 16.8232Z" fill="black"/>
<path d="M11.25 8C11.25 7.58579 11.5858 7.25 12 7.25H15.9997C16.0004 7.25 16.0015 7.25 16.0022 7.25C16.1031 7.2503 16.1993 7.27051 16.2871 7.30691C16.3755 7.34351 16.4584 7.39776 16.5303 7.46967C16.6022 7.54158 16.6565 7.62445 16.6931 7.71291C16.7298 7.80134 16.75 7.89831 16.75 8V12C16.75 12.4142 16.4142 12.75 16 12.75C15.5858 12.75 15.25 12.4142 15.25 12V9.81066L11.5303 13.5303C11.2374 13.8232 10.7626 13.8232 10.4697 13.5303C10.1768 13.2374 10.1768 12.7626 10.4697 12.4697L14.1893 8.75H12C11.5858 8.75 11.25 8.41421 11.25 8Z" fill="black"/>
</svg>
