<svg width="18" height="19" viewBox="0 0 18 19" fill="none" xmlns="http://www.w3.org/2000/svg">
<g id="info-circle">
<g id="Shape">
<path d="M9.75 8.5H8.25C7.93934 8.5 7.6875 8.75184 7.6875 9.0625C7.6875 9.37316 7.93934 9.625 8.25 9.625H8.4375V13H8.25C7.93934 13 7.6875 13.2518 7.6875 13.5625C7.6875 13.8732 7.93934 14.125 8.25 14.125H9.75C10.0607 14.125 10.3125 13.8732 10.3125 13.5625C10.3125 13.2518 10.0607 13 9.75 13H9.5625V9.625H9.75C10.0607 9.625 10.3125 9.37316 10.3125 9.0625C10.3125 8.75184 10.0607 8.5 9.75 8.5Z" fill="#686B6D"/>
<path d="M9 7.1875C9.41421 7.1875 9.75 6.85171 9.75 6.4375C9.75 6.02329 9.41421 5.6875 9 5.6875C8.58579 5.6875 8.25 6.02329 8.25 6.4375C8.25 6.85171 8.58579 7.1875 9 7.1875Z" fill="#686B6D"/>
<path fill-rule="evenodd" clip-rule="evenodd" d="M1.6875 9.8125C1.6875 5.77392 4.96142 2.5 9 2.5C13.0386 2.5 16.3125 5.77392 16.3125 9.8125C16.3125 13.8511 13.0386 17.125 9 17.125C4.96142 17.125 1.6875 13.8511 1.6875 9.8125ZM9 3.625C5.58274 3.625 2.8125 6.39524 2.8125 9.8125C2.8125 13.2298 5.58274 16 9 16C12.4173 16 15.1875 13.2298 15.1875 9.8125C15.1875 6.39524 12.4173 3.625 9 3.625Z" fill="#686B6D"/>
</g>
</g>
</svg>
