<svg xmlns="http://www.w3.org/2000/svg" width="89" height="24" viewBox="0 0 89 24" fill="none">
    <path d="M82.0352 17.4658H73.4219L71.1831 23.2935H66.7227L75.7974 0.427246H79.6255L88.7002 23.2935H84.2739L82.0352 17.4658ZM77.6943 5.93018C76.8968 8.32275 76.1847 10.3223 75.5581 11.9287L74.772 13.9624H80.6851L79.8989 11.9287C79.2723 10.3109 78.5602 8.31136 77.7627 5.93018H77.6943Z" fill="white"/>
    <path d="M65.2861 7.29736C65.2861 8.89242 64.8418 10.2482 63.9531 11.3647C63.0758 12.4699 61.7144 13.2902 59.8687 13.8257V13.894L66.6704 23.2935H61.646L55.4253 14.4409H52.5542V23.2935H48.3672V0.427246H55.3228C56.4735 0.427246 57.5444 0.495605 58.5356 0.632324C59.5269 0.75765 60.3757 0.951335 61.082 1.21338C62.4264 1.72607 63.4632 2.48942 64.1924 3.50342C64.9215 4.50602 65.2861 5.77067 65.2861 7.29736ZM54.6221 10.9375C55.5791 10.9375 56.388 10.8976 57.0488 10.8179C57.721 10.7267 58.285 10.5957 58.7407 10.4248C59.5838 10.1058 60.1649 9.67285 60.4839 9.12598C60.8143 8.56771 60.9795 7.92969 60.9795 7.21191C60.9795 6.59668 60.8485 6.0555 60.5864 5.58838C60.3358 5.10986 59.9028 4.73389 59.2876 4.46045C58.8888 4.27816 58.3875 4.14714 57.7837 4.06738C57.1799 3.97624 56.4336 3.93066 55.5449 3.93066H52.5542V10.9375H54.6221Z" fill="white"/>
    <path d="M41 11.8604C41 10.4704 40.8291 9.257 40.4873 8.22021C40.1455 7.17204 39.6727 6.30046 39.0688 5.60547C38.465 4.91048 37.7472 4.39209 36.9155 4.05029C36.0838 3.7085 35.1724 3.5376 34.1812 3.5376C33.1899 3.5376 32.2785 3.7085 31.4468 4.05029C30.6151 4.39209 29.8973 4.91048 29.2935 5.60547C28.6896 6.30046 28.2168 7.17204 27.875 8.22021C27.5332 9.257 27.3623 10.4704 27.3623 11.8604C27.3623 13.2503 27.5332 14.4694 27.875 15.5176C28.2168 16.5544 28.6896 17.4202 29.2935 18.1152C29.8973 18.7988 30.6151 19.3172 31.4468 19.6704C32.2785 20.0122 33.1899 20.1831 34.1812 20.1831C35.1724 20.1831 36.0838 20.0122 36.9155 19.6704C37.7472 19.3172 38.465 18.7988 39.0688 18.1152C39.6727 17.4202 40.1455 16.5544 40.4873 15.5176C40.8291 14.4694 41 13.2503 41 11.8604ZM45.3237 11.8604C45.3237 13.6035 45.0731 15.2043 44.5718 16.6626C44.0819 18.1095 43.3584 19.3571 42.4014 20.4053C41.4557 21.4535 40.2879 22.2681 38.8979 22.8491C37.5194 23.4302 35.9471 23.7207 34.1812 23.7207C32.4152 23.7207 30.8372 23.4302 29.4473 22.8491C28.0687 22.2681 26.9009 21.4535 25.9438 20.4053C24.9982 19.3571 24.2747 18.1095 23.7734 16.6626C23.2835 15.2043 23.0386 13.6035 23.0386 11.8604C23.0386 10.1172 23.2835 8.52214 23.7734 7.0752C24.2747 5.61686 24.9982 4.36361 25.9438 3.31543C26.9009 2.26725 28.0687 1.45264 29.4473 0.871582C30.8372 0.290527 32.4152 0 34.1812 0C35.9471 0 37.5194 0.290527 38.8979 0.871582C40.2879 1.45264 41.4557 2.26725 42.4014 3.31543C43.3584 4.36361 44.0819 5.61686 44.5718 7.0752C45.0731 8.52214 45.3237 10.1172 45.3237 11.8604Z" fill="white"/>
    <path d="M11.9116 11.0571C13.5522 13.3927 14.8853 15.4663 15.9106 17.2778H16.0132C15.8765 14.3042 15.8081 12.1395 15.8081 10.7837V0.427246H19.9951V23.2935H15.603L8.15186 12.7661C6.84163 10.9432 5.48584 8.82975 4.08447 6.42578H3.98193C4.11865 9.22852 4.18701 11.3989 4.18701 12.937V23.2935H0V0.427246H4.39209L11.9116 11.0571Z" fill="white"/>
</svg>