<svg width="24" height="24" viewBox="0 0 24 24" fill="none" xmlns="http://www.w3.org/2000/svg">
<path d="M12.4697 5.46967C12.7626 5.17678 13.2374 5.17678 13.5303 5.46967L19.5298 11.4692C19.6017 11.5411 19.6565 11.6245 19.6931 11.7129C19.7275 11.7958 19.7474 11.8862 19.7498 11.981C19.7499 11.9873 19.75 11.9936 19.75 12C19.75 12.1919 19.6768 12.3839 19.5303 12.5303L13.5303 18.5303C13.2374 18.8232 12.7626 18.8232 12.4697 18.5303C12.1768 18.2374 12.1768 17.7626 12.4697 17.4697L17.1893 12.75H5C4.58579 12.75 4.25 12.4142 4.25 12C4.25 11.5858 4.58579 11.25 5 11.25H17.1893L12.4697 6.53033C12.1768 6.23744 12.1768 5.76256 12.4697 5.46967Z" fill="black"/>
</svg>
