<svg width="24" height="24" viewBox="0 0 24 24" fill="none" xmlns="http://www.w3.org/2000/svg">
<path d="M12.5303 4.46967L18.5303 10.4697C18.8232 10.7626 18.8232 11.2374 18.5303 11.5303C18.2374 11.8232 17.7626 11.8232 17.4697 11.5303L12.75 6.81066V19C12.75 19.4142 12.4142 19.75 12 19.75C11.5858 19.75 11.25 19.4142 11.25 19V6.81066L6.53033 11.5303C6.23744 11.8232 5.76256 11.8232 5.46967 11.5303C5.17678 11.2374 5.17678 10.7626 5.46967 10.4697L11.4697 4.46967C11.5383 4.40102 11.617 4.34847 11.7009 4.312C11.7049 4.31026 11.7089 4.30857 11.7129 4.30691C11.8013 4.27024 11.8983 4.25 12 4.25C12.1017 4.25 12.1987 4.27024 12.2871 4.30691C12.3755 4.34351 12.4584 4.39776 12.5303 4.46967Z" fill="black"/>
</svg>
