<svg width="24" height="24" viewBox="0 0 24 24" fill="none" xmlns="http://www.w3.org/2000/svg">
<path fill-rule="evenodd" clip-rule="evenodd" d="M15 2.25C15.4142 2.25 15.75 2.58579 15.75 3V4.25H17C17.7293 4.25 18.4288 4.53973 18.9445 5.05546C19.4603 5.57118 19.75 6.27065 19.75 7V11C19.75 11.4142 19.4142 11.75 19 11.75H3.75V19C3.75 19.3315 3.8817 19.6495 4.11612 19.8839C4.35054 20.1183 4.66848 20.25 5 20.25H11.795C12.2092 20.25 12.545 20.5858 12.545 21C12.545 21.4142 12.2092 21.75 11.795 21.75H5C4.27065 21.75 3.57118 21.4603 3.05546 20.9445C2.53973 20.4288 2.25 19.7293 2.25 19V7C2.25 6.27065 2.53973 5.57118 3.05546 5.05546C3.57118 4.53973 4.27065 4.25 5 4.25H6.25V3C6.25 2.58579 6.58579 2.25 7 2.25C7.41421 2.25 7.75 2.58579 7.75 3V4.25H14.25V3C14.25 2.58579 14.5858 2.25 15 2.25ZM18.25 7V10.25H3.75V7C3.75 6.66848 3.8817 6.35054 4.11612 6.11612C4.35054 5.8817 4.66848 5.75 5 5.75H6.25V7C6.25 7.41421 6.58579 7.75 7 7.75C7.41421 7.75 7.75 7.41421 7.75 7V5.75H14.25V7C14.25 7.41421 14.5858 7.75 15 7.75C15.4142 7.75 15.75 7.41421 15.75 7V5.75H17C17.3315 5.75 17.6495 5.8817 17.8839 6.11612C18.1183 6.35054 18.25 6.66848 18.25 7Z" fill="black"/>
<path fill-rule="evenodd" clip-rule="evenodd" d="M19.905 13.2451C19.5307 13.2451 19.1601 13.3188 18.8143 13.4621C18.4691 13.6051 18.1553 13.8146 17.8909 14.0787L14.472 17.4676C14.3299 17.6084 14.25 17.8002 14.25 18.0002V21.0002C14.25 21.4144 14.5858 21.7502 15 21.7502H18C18.2001 21.7502 18.3918 21.6703 18.5327 21.5282L21.9203 18.1106L21.9216 18.1093C22.1856 17.8449 22.3951 17.5312 22.5382 17.1859C22.6814 16.8401 22.7551 16.4695 22.7551 16.0952C22.7551 15.7209 22.6814 15.3503 22.5382 15.0045C22.3949 14.6587 22.185 14.3446 21.9203 14.0799C21.6557 13.8152 21.3415 13.6053 20.9957 13.4621C20.6499 13.3188 20.2793 13.2451 19.905 13.2451ZM19.3883 14.8479C19.5521 14.78 19.7277 14.7451 19.905 14.7451C20.0823 14.7451 20.2579 14.78 20.4217 14.8479C20.5855 14.9157 20.7343 15.0152 20.8597 15.1406C20.985 15.2659 21.0845 15.4148 21.1523 15.5786C21.2202 15.7424 21.2551 15.9179 21.2551 16.0952C21.2551 16.2725 21.2202 16.4481 21.1523 16.6119C21.0845 16.7757 20.985 16.9245 20.8597 17.0499L20.8573 17.0522L17.6874 20.2502H15.75V18.3128L18.948 15.1429L18.9503 15.1406C19.0757 15.0152 19.2245 14.9157 19.3883 14.8479Z" fill="black"/>
</svg>
