<svg width="24" height="24" viewBox="0 0 24 24" fill="none" xmlns="http://www.w3.org/2000/svg">
<path fill-rule="evenodd" clip-rule="evenodd" d="M9 15.7496C8.59 15.7496 8.25 15.4096 8.25 14.9996V11.9996C8.25 11.7996 8.33 11.6096 8.47 11.4696L15.3712 4.59296C15.3992 4.54944 15.4321 4.50831 15.47 4.47043C15.5085 4.4319 15.5504 4.3985 15.5947 4.37021L16.89 3.07957C18 1.96957 19.81 1.96957 20.92 3.07957C21.46 3.61957 21.75 4.32957 21.75 5.09957C21.75 5.86957 21.45 6.57957 20.92 7.11957L19.6135 8.43074C19.589 8.46585 19.5612 8.49924 19.53 8.53043C19.4984 8.56205 19.465 8.59012 19.4302 8.61472L12.54 15.5296C12.4 15.6696 12.21 15.7496 12.01 15.7496H9ZM17.9319 7.99236L11.69 14.2496H9.75V12.3296L16.021 6.08147L17.9319 7.99236ZM18.9906 6.93106L19.86 6.05957C20.11 5.79957 20.26 5.46957 20.26 5.10957C20.26 4.74957 20.12 4.40957 19.86 4.15957C19.35 3.64957 18.46 3.64957 17.95 4.15957L17.083 5.02341L18.9906 6.93106Z" fill="black"/>
<path d="M15 21.75H5C3.48 21.75 2.25 20.52 2.25 19V9C2.25 7.48 3.48 6.25 5 6.25H7C7.41 6.25 7.75 6.59 7.75 7C7.75 7.41 7.41 7.75 7 7.75H5C4.31 7.75 3.75 8.31 3.75 9V19C3.75 19.69 4.31 20.25 5 20.25H15C15.69 20.25 16.25 19.69 16.25 19V17C16.25 16.59 16.59 16.25 17 16.25C17.41 16.25 17.75 16.59 17.75 17V19C17.75 20.52 16.52 21.75 15 21.75Z" fill="black"/>
</svg>
