<svg width="24" height="24" viewBox="0 0 24 24" fill="none" xmlns="http://www.w3.org/2000/svg">
<path d="M19.53 7.47L14.53 2.47C14.39 2.33 14.2 2.25 14 2.25H7C5.48 2.25 4.25 3.48 4.25 5V19C4.25 20.52 5.48 21.75 7 21.75H17C18.52 21.75 19.75 20.52 19.75 19V8C19.75 7.8 19.67 7.61 19.53 7.47ZM14.75 4.81L17.19 7.25H15C14.86 7.25 14.75 7.14 14.75 7V4.81ZM17 20.25H7C6.31 20.25 5.75 19.69 5.75 19V5C5.75 4.31 6.31 3.75 7 3.75H13.25V7C13.25 7.96 14.04 8.75 15 8.75H18.25V19C18.25 19.69 17.69 20.25 17 20.25ZM12 9.25C9.38 9.25 7.25 11.38 7.25 14C7.25 16.62 9.38 18.75 12 18.75C14.62 18.75 16.75 16.62 16.75 14C16.75 11.38 14.62 9.25 12 9.25ZM12 17.25C10.21 17.25 8.75 15.79 8.75 14C8.75 12.21 10.21 10.75 12 10.75C13.79 10.75 15.25 12.21 15.25 14C15.25 15.79 13.79 17.25 12 17.25ZM13.53 14.47C13.82 14.76 13.82 15.24 13.53 15.53C13.38 15.68 13.19 15.75 13 15.75C12.81 15.75 12.62 15.68 12.47 15.53L11.47 14.53C11.33 14.39 11.25 14.2 11.25 14V12.5C11.25 12.09 11.59 11.75 12 11.75C12.41 11.75 12.75 12.09 12.75 12.5V13.69L13.53 14.47Z" fill="black"/>
</svg>
