<svg width="24" height="24" viewBox="0 0 24 24" fill="none" xmlns="http://www.w3.org/2000/svg">
<path d="M12.75 12.4961C12.75 12.0819 12.4142 11.7461 12 11.7461C11.5858 11.7461 11.25 12.0819 11.25 12.4961V14.0001C11.25 14.199 11.329 14.3898 11.4697 14.5304L12.4697 15.5304C12.7626 15.8233 13.2374 15.8233 13.5303 15.5304C13.8232 15.2375 13.8232 14.7627 13.5303 14.4698L12.75 13.6894V12.4961Z" fill="black"/>
<path fill-rule="evenodd" clip-rule="evenodd" d="M8.64124 10.6412C9.53204 9.75044 10.7402 9.25 12 9.25C13.2598 9.25 14.468 9.75044 15.3588 10.6412C16.2496 11.532 16.75 12.7402 16.75 14C16.75 15.2598 16.2496 16.468 15.3588 17.3588C14.468 18.2496 13.2598 18.75 12 18.75C10.7402 18.75 9.53204 18.2496 8.64124 17.3588C7.75044 16.468 7.25 15.2598 7.25 14C7.25 12.7402 7.75044 11.532 8.64124 10.6412ZM12 10.75C11.138 10.75 10.3114 11.0924 9.7019 11.7019C9.09241 12.3114 8.75 13.138 8.75 14C8.75 14.862 9.09241 15.6886 9.7019 16.2981C10.3114 16.9076 11.138 17.25 12 17.25C12.862 17.25 13.6886 16.9076 14.2981 16.2981C14.9076 15.6886 15.25 14.862 15.25 14C15.25 13.138 14.9076 12.3114 14.2981 11.7019C13.6886 11.0924 12.862 10.75 12 10.75Z" fill="black"/>
<path fill-rule="evenodd" clip-rule="evenodd" d="M7 2.25C6.27065 2.25 5.57118 2.53973 5.05546 3.05546C4.53973 3.57118 4.25 4.27065 4.25 5V19C4.25 19.7293 4.53973 20.4288 5.05546 20.9445C5.57118 21.4603 6.27065 21.75 7 21.75H17C17.7293 21.75 18.4288 21.4603 18.9445 20.9445C19.4603 20.4288 19.75 19.7293 19.75 19V8C19.75 7.80109 19.671 7.61032 19.5303 7.46967L14.5303 2.46967C14.3897 2.32902 14.1989 2.25 14 2.25H7ZM6.11612 4.11612C6.35054 3.8817 6.66848 3.75 7 3.75H13.25V7C13.25 7.46413 13.4344 7.90925 13.7626 8.23744C14.0908 8.56563 14.5359 8.75 15 8.75H18.25V19C18.25 19.3315 18.1183 19.6495 17.8839 19.8839C17.6495 20.1183 17.3315 20.25 17 20.25H7C6.66848 20.25 6.35054 20.1183 6.11612 19.8839C5.8817 19.6495 5.75 19.3315 5.75 19V5C5.75 4.66848 5.8817 4.35054 6.11612 4.11612ZM17.1893 7.25L14.75 4.81066V7C14.75 7.0663 14.7763 7.12989 14.8232 7.17678C14.8701 7.22366 14.9337 7.25 15 7.25H17.1893Z" fill="black"/>
</svg>
