<svg width="24" height="24" viewBox="0 0 24 24" fill="none" xmlns="http://www.w3.org/2000/svg">
<path d="M6 2.25C5.58579 2.25 5.25 2.58579 5.25 3C5.25 3.41421 5.58579 3.75 6 3.75C6.59674 3.75 7.16903 3.98705 7.59099 4.40901C8.01295 4.83097 8.25 5.40326 8.25 6V18C8.25 18.5967 8.01295 19.169 7.59099 19.591C7.16903 20.0129 6.59674 20.25 6 20.25C5.58579 20.25 5.25 20.5858 5.25 21C5.25 21.4142 5.58579 21.75 6 21.75C6.99456 21.75 7.94839 21.3549 8.65165 20.6517C8.77786 20.5254 8.89414 20.3912 9 20.25C9.10586 20.3912 9.22214 20.5254 9.34835 20.6517C10.0516 21.3549 11.0054 21.75 12 21.75C12.4142 21.75 12.75 21.4142 12.75 21C12.75 20.5858 12.4142 20.25 12 20.25C11.4033 20.25 10.831 20.0129 10.409 19.591C9.98705 19.169 9.75 18.5967 9.75 18V6C9.75 5.40326 9.98705 4.83097 10.409 4.40901C10.831 3.98705 11.4033 3.75 12 3.75C12.4142 3.75 12.75 3.41421 12.75 3C12.75 2.58579 12.4142 2.25 12 2.25C11.0054 2.25 10.0516 2.64509 9.34835 3.34835C9.22214 3.47456 9.10586 3.60884 9 3.74997C8.89414 3.60884 8.77786 3.47456 8.65165 3.34835C7.94839 2.64509 6.99456 2.25 6 2.25Z" fill="black"/>
<path d="M12.25 7C12.25 6.58579 12.5858 6.25 13 6.25H20C20.4641 6.25 20.9092 6.43437 21.2374 6.76256C21.5656 7.09075 21.75 7.53587 21.75 8V16C21.75 16.4641 21.5656 16.9092 21.2374 17.2374C20.9092 17.5656 20.4641 17.75 20 17.75H13C12.5858 17.75 12.25 17.4142 12.25 17C12.25 16.5858 12.5858 16.25 13 16.25H20C20.0663 16.25 20.1299 16.2237 20.1768 16.1768C20.2237 16.1299 20.25 16.0663 20.25 16V8C20.25 7.93369 20.2237 7.87011 20.1768 7.82322C20.1299 7.77634 20.0663 7.75 20 7.75H13C12.5858 7.75 12.25 7.41421 12.25 7Z" fill="black"/>
<path d="M4 6.25C3.53587 6.25 3.09075 6.43437 2.76256 6.76256C2.43437 7.09075 2.25 7.53587 2.25 8V16C2.25 16.4641 2.43437 16.9092 2.76256 17.2374C3.09075 17.5656 3.53587 17.75 4 17.75H5C5.41421 17.75 5.75 17.4142 5.75 17C5.75 16.5858 5.41421 16.25 5 16.25H4C3.93369 16.25 3.87011 16.2237 3.82322 16.1768C3.77634 16.1299 3.75 16.0663 3.75 16V8C3.75 7.9337 3.77634 7.87011 3.82322 7.82322C3.87011 7.77634 3.9337 7.75 4 7.75H5C5.41421 7.75 5.75 7.41421 5.75 7C5.75 6.58579 5.41421 6.25 5 6.25H4Z" fill="black"/>
<path d="M16.25 12C16.25 11.5858 16.5858 11.25 17 11.25H17.01C17.4242 11.25 17.76 11.5858 17.76 12C17.76 12.4142 17.4242 12.75 17.01 12.75H17C16.5858 12.75 16.25 12.4142 16.25 12Z" fill="black"/>
<path d="M13 11.25C12.5858 11.25 12.25 11.5858 12.25 12C12.25 12.4142 12.5858 12.75 13 12.75H13.01C13.4242 12.75 13.76 12.4142 13.76 12C13.76 11.5858 13.4242 11.25 13.01 11.25H13Z" fill="black"/>
</svg>
