<svg width="24" height="24" viewBox="0 0 24 24" fill="none" xmlns="http://www.w3.org/2000/svg">
<path d="M12 16.25C12.4142 16.25 12.75 16.5858 12.75 17V17.01C12.75 17.4242 12.4142 17.76 12 17.76C11.5858 17.76 11.25 17.4242 11.25 17.01V17C11.25 16.5858 11.5858 16.25 12 16.25Z" fill="black"/>
<path d="M12.0806 6.22169C11.5621 6.22025 11.0504 6.33919 10.5856 6.56914C10.1209 6.79909 9.71591 7.13377 9.40252 7.54684C9.15215 7.87683 9.2167 8.3473 9.54669 8.59766C9.87668 8.84802 10.3471 8.78347 10.5975 8.45349C10.7706 8.22537 10.9942 8.04055 11.2509 7.91356C11.5075 7.78657 11.7901 7.72089 12.0765 7.72169C12.3628 7.72248 12.645 7.78973 12.901 7.91814C13.1569 8.04655 13.3795 8.23261 13.5513 8.46168C13.7231 8.69075 13.8394 8.95657 13.891 9.23822C13.9426 9.51986 13.9282 9.80965 13.8488 10.0848C13.7693 10.3599 13.6272 10.6128 13.4334 10.8236C13.2415 11.0324 13.0042 11.1942 12.7399 11.2967C12.2846 11.4595 11.8938 11.7647 11.6255 12.1672C11.3549 12.573 11.2236 13.0557 11.2512 13.5426C11.2747 13.9562 11.6289 14.2724 12.0425 14.249C12.456 14.2255 12.7723 13.8712 12.7488 13.4577C12.7396 13.2954 12.7834 13.1345 12.8736 12.9992C12.9637 12.8639 13.0954 12.7616 13.2488 12.7077L13.2679 12.7007C13.7522 12.5155 14.1869 12.2204 14.5378 11.8386C14.8886 11.4569 15.1461 10.9989 15.2899 10.5008C15.4337 10.0026 15.4599 9.47785 15.3665 8.96784C15.273 8.45783 15.0624 7.97648 14.7513 7.56168C14.4402 7.14688 14.0371 6.80995 13.5736 6.57743C13.1102 6.3449 12.5991 6.22313 12.0806 6.22169Z" fill="black"/>
<path fill-rule="evenodd" clip-rule="evenodd" d="M8.26884 2.99217C9.45176 2.50219 10.7196 2.25 12 2.25C13.2804 2.25 14.5482 2.50219 15.7312 2.99217C16.9141 3.48216 17.9889 4.20034 18.8943 5.10571C19.7997 6.01108 20.5178 7.08591 21.0078 8.26884C21.4978 9.45176 21.75 10.7196 21.75 12C21.75 13.2804 21.4978 14.5482 21.0078 15.7312C20.5178 16.9141 19.7997 17.9889 18.8943 18.8943C17.9889 19.7997 16.9141 20.5178 15.7312 21.0078C14.5482 21.4978 13.2804 21.75 12 21.75C10.7196 21.75 9.45176 21.4978 8.26884 21.0078C7.08591 20.5178 6.01108 19.7997 5.10571 18.8943C4.20034 17.9889 3.48216 16.9141 2.99217 15.7312C2.50219 14.5482 2.25 13.2804 2.25 12C2.25 10.7196 2.50219 9.45176 2.99217 8.26884C3.48216 7.08591 4.20034 6.01108 5.10571 5.10571C6.01108 4.20034 7.08591 3.48216 8.26884 2.99217ZM12 3.75C10.9166 3.75 9.8438 3.96339 8.84286 4.37799C7.84193 4.7926 6.93245 5.40029 6.16637 6.16637C5.40029 6.93245 4.79259 7.84193 4.37799 8.84286C3.96339 9.8438 3.75 10.9166 3.75 12C3.75 13.0834 3.96339 14.1562 4.37799 15.1571C4.79259 16.1581 5.40029 17.0675 6.16637 17.8336C6.93245 18.5997 7.84193 19.2074 8.84286 19.622C9.8438 20.0366 10.9166 20.25 12 20.25C13.0834 20.25 14.1562 20.0366 15.1571 19.622C16.1581 19.2074 17.0675 18.5997 17.8336 17.8336C18.5997 17.0675 19.2074 16.1581 19.622 15.1571C20.0366 14.1562 20.25 13.0834 20.25 12C20.25 10.9166 20.0366 9.8438 19.622 8.84286C19.2074 7.84193 18.5997 6.93245 17.8336 6.16637C17.0675 5.40029 16.1581 4.7926 15.1571 4.37799C14.1562 3.96339 13.0834 3.75 12 3.75Z" fill="black"/>
</svg>
