<svg width="24" height="24" viewBox="0 0 24 24" fill="none" xmlns="http://www.w3.org/2000/svg">
<path fill-rule="evenodd" clip-rule="evenodd" d="M5 4.25C4.27065 4.25 3.57118 4.53973 3.05546 5.05546C2.53973 5.57118 2.25 6.27065 2.25 7V17C2.25 17.7293 2.53973 18.4288 3.05546 18.9445C3.57118 19.4603 4.27065 19.75 5 19.75H19C19.7293 19.75 20.4288 19.4603 20.9445 18.9445C21.4603 18.4288 21.75 17.7293 21.75 17V7C21.75 6.27065 21.4603 5.57118 20.9445 5.05546C20.4288 4.53973 19.7293 4.25 19 4.25H5ZM4.11612 6.11612C4.35054 5.8817 4.66848 5.75 5 5.75H19C19.3315 5.75 19.6495 5.8817 19.8839 6.11612C20.03 6.26225 20.1362 6.44085 20.1955 6.63495L12 12.0986L3.80449 6.63495C3.86377 6.44085 3.96998 6.26225 4.11612 6.11612ZM3.75 8.4014V17C3.75 17.3315 3.8817 17.6495 4.11612 17.8839C4.35054 18.1183 4.66848 18.25 5 18.25H19C19.3315 18.25 19.6495 18.1183 19.8839 17.8839C20.1183 17.6495 20.25 17.3315 20.25 17V8.4014L12.416 13.6241C12.1641 13.792 11.8359 13.792 11.584 13.6241L3.75 8.4014Z" fill="black"/>
</svg>
