<svg width="24" height="24" viewBox="0 0 24 24" fill="none" xmlns="http://www.w3.org/2000/svg">
<path d="M0.916687 4C0.916687 3.58579 1.25247 3.25 1.66669 3.25H22.3334C22.7476 3.25 23.0834 3.58579 23.0834 4C23.0834 4.41421 22.7476 4.75 22.3334 4.75H1.66669C1.25247 4.75 0.916687 4.41421 0.916687 4Z" fill="black"/>
<path d="M0.916687 12C0.916687 11.5858 1.25247 11.25 1.66669 11.25H22.3334C22.7476 11.25 23.0834 11.5858 23.0834 12C23.0834 12.4142 22.7476 12.75 22.3334 12.75H1.66669C1.25247 12.75 0.916687 12.4142 0.916687 12Z" fill="black"/>
<path d="M1.66669 19.25C1.25247 19.25 0.916687 19.5858 0.916687 20C0.916687 20.4142 1.25247 20.75 1.66669 20.75H22.3334C22.7476 20.75 23.0834 20.4142 23.0834 20C23.0834 19.5858 22.7476 19.25 22.3334 19.25H1.66669Z" fill="black"/>
</svg>
