<svg width="24" height="24" viewBox="0 0 24 24" fill="none" xmlns="http://www.w3.org/2000/svg">
<path d="M3.25 6C3.25 5.58579 3.58579 5.25 4 5.25H13C13.4142 5.25 13.75 5.58579 13.75 6C13.75 6.41421 13.4142 6.75 13 6.75H4C3.58579 6.75 3.25 6.41421 3.25 6Z" fill="black"/>
<path d="M3.25 12C3.25 11.5858 3.58579 11.25 4 11.25H11C11.4142 11.25 11.75 11.5858 11.75 12C11.75 12.4142 11.4142 12.75 11 12.75H4C3.58579 12.75 3.25 12.4142 3.25 12Z" fill="black"/>
<path d="M4 17.25C3.58579 17.25 3.25 17.5858 3.25 18C3.25 18.4142 3.58579 18.75 4 18.75H11C11.4142 18.75 11.75 18.4142 11.75 18C11.75 17.5858 11.4142 17.25 11 17.25H4Z" fill="black"/>
<path d="M14.4697 14.4697C14.7626 14.1768 15.2374 14.1768 15.5303 14.4697L17.25 16.1893V6C17.25 5.58579 17.5858 5.25 18 5.25C18.4142 5.25 18.75 5.58579 18.75 6V16.1893L20.4697 14.4697C20.7626 14.1768 21.2374 14.1768 21.5303 14.4697C21.8232 14.7626 21.8232 15.2374 21.5303 15.5303L18.5303 18.5303C18.3839 18.6768 18.1919 18.75 18 18.75C17.8983 18.75 17.8013 18.7298 17.7129 18.6931C17.6245 18.6565 17.5416 18.6022 17.4697 18.5303L14.4697 15.5303C14.1768 15.2374 14.1768 14.7626 14.4697 14.4697Z" fill="black"/>
</svg>
