<svg width="24" height="24" viewBox="0 0 24 24" fill="none" xmlns="http://www.w3.org/2000/svg">
<path fill-rule="evenodd" clip-rule="evenodd" d="M9.34835 7.34835C10.0516 6.64509 11.0054 6.25 12 6.25C12.9946 6.25 13.9484 6.64509 14.6517 7.34835C15.3549 8.05161 15.75 9.00544 15.75 10C15.75 10.9946 15.3549 11.9484 14.6517 12.6517C13.9484 13.3549 12.9946 13.75 12 13.75C11.0054 13.75 10.0516 13.3549 9.34835 12.6517C8.64509 11.9484 8.25 10.9946 8.25 10C8.25 9.00544 8.64509 8.05161 9.34835 7.34835ZM12 7.75C11.4033 7.75 10.831 7.98705 10.409 8.40901C9.98705 8.83097 9.75 9.40326 9.75 10C9.75 10.5967 9.98705 11.169 10.409 11.591C10.831 12.0129 11.4033 12.25 12 12.25C12.5967 12.25 13.169 12.0129 13.591 11.591C14.0129 11.169 14.25 10.5967 14.25 10C14.25 9.40326 14.0129 8.83097 13.591 8.40901C13.169 7.98705 12.5967 7.75 12 7.75Z" fill="black"/>
<path fill-rule="evenodd" clip-rule="evenodd" d="M8.26884 2.99217C9.45176 2.50219 10.7196 2.25 12 2.25C13.2804 2.25 14.5482 2.50219 15.7312 2.99217C16.9141 3.48216 17.9889 4.20034 18.8943 5.10571C19.7997 6.01108 20.5178 7.08591 21.0078 8.26884C21.4978 9.45176 21.75 10.7196 21.75 12C21.75 13.2804 21.4978 14.5482 21.0078 15.7312C20.5178 16.9141 19.7997 17.9889 18.8943 18.8943C18.7216 19.067 18.5428 19.2328 18.3582 19.3916C18.3336 19.4157 18.3073 19.4381 18.2793 19.4588C17.5156 20.1017 16.6565 20.6246 15.7312 21.0078C14.5482 21.4978 13.2804 21.75 12 21.75C10.7196 21.75 9.45176 21.4978 8.26884 21.0078C7.08591 20.5178 6.01108 19.7997 5.10571 18.8943C4.20034 17.9889 3.48216 16.9141 2.99217 15.7312C2.50219 14.5482 2.25 13.2804 2.25 12C2.25 10.7196 2.50219 9.45176 2.99217 8.26884C3.48216 7.08591 4.20034 6.01108 5.10571 5.10571C6.01108 4.20034 7.08591 3.48216 8.26884 2.99217ZM18.084 17.5721C18.7329 16.8636 19.2536 16.0464 19.622 15.1571C20.0366 14.1562 20.25 13.0834 20.25 12C20.25 10.9166 20.0366 9.8438 19.622 8.84286C19.2074 7.84193 18.5997 6.93245 17.8336 6.16637C17.0675 5.40029 16.1581 4.7926 15.1571 4.37799C14.1562 3.96339 13.0834 3.75 12 3.75C10.9166 3.75 9.8438 3.96339 8.84286 4.37799C7.84193 4.7926 6.93245 5.40029 6.16637 6.16637C5.40029 6.93245 4.79259 7.84193 4.37799 8.84286C3.96339 9.8438 3.75 10.9166 3.75 12C3.75 13.0834 3.96339 14.1562 4.37799 15.1571C4.74638 16.0465 5.26721 16.8637 5.91615 17.5722C6.23494 17.0361 6.65816 16.5647 7.16476 16.1881C7.98441 15.5787 8.97864 15.2497 10 15.25H13.9997C15.0224 15.2497 16.0181 15.5795 16.8383 16.1902C17.3436 16.5665 17.7658 17.0371 18.084 17.5721ZM7.06166 18.6087C7.28857 18.1297 7.63039 17.7111 8.05973 17.3919C8.62058 16.9749 9.3009 16.7498 9.99978 16.75H14C14.6998 16.7498 15.3812 16.9754 15.9424 17.3933C16.3709 17.7123 16.7119 18.1304 16.9385 18.6086C16.3904 19.0182 15.7922 19.359 15.1571 19.622C14.1562 20.0366 13.0834 20.25 12 20.25C10.9166 20.25 9.8438 20.0366 8.84286 19.622C8.2079 19.359 7.60975 19.0183 7.06166 18.6087Z" fill="black"/>
</svg>
